<?xml version="1.0" encoding="UTF-8" standalone="no"?>
<!DOCTYPE svg PUBLIC "-//W3C//DTD SVG 1.1//EN"
 "http://www.w3.org/Graphics/SVG/1.1/DTD/svg11.dtd">
<!-- Generated by graphviz version 7.0.6 (20230106.0513)
 -->
<!-- Title: fileDAG Pages: 1 -->
<svg width="593pt" height="404pt"
 viewBox="0.00 0.00 593.00 404.00" xmlns="http://www.w3.org/2000/svg" xmlns:xlink="http://www.w3.org/1999/xlink">
<g id="graph0" class="graph" transform="scale(1 1) rotate(0) translate(4 400)">
<title>fileDAG</title>
<polygon fill="white" stroke="none" points="-4,4 -4,-400 589,-400 589,4 -4,4"/>
<!-- cache/m1.RDS -->
<g id="node1" class="node cache-m1-RDS -->
">
<title>cache/m1.RDS</title>
<g id="a_node1"><a xlink:title="DATE &#160;&#160;&#160;: Wed Jan 10 15:26:49 2024&#10;RULE &#160;&#160;&#160;: fit_m1&#10;STATUS &#160;: ok&#10;PLAN &#160;&#160;&#160;: no update&#10;">
<polygon fill="none" stroke="grey" stroke-width="1.5" stroke-dasharray="5,2" points="585,-252 496,-252 496,-216 585,-216 585,-252"/>
<text text-anchor="middle" x="540.5" y="-231.5" font-family="mono" font-size="10.00">cache/m1.RDS</text>
</a>
</g>
</g>
<!-- cache/m2.RDS -->
<g id="node2" class="node cache-m2-RDS -->
">
<title>cache/m2.RDS</title>
<g id="a_node2"><a xlink:title="DATE &#160;&#160;&#160;: Wed Jan 10 15:37:14 2024&#10;RULE &#160;&#160;&#160;: fit_m2&#10;STATUS &#160;: ok&#10;PLAN &#160;&#160;&#160;: no update&#10;">
<polygon fill="none" stroke="grey" stroke-width="1.5" stroke-dasharray="5,2" points="585,-180 496,-180 496,-144 585,-144 585,-180"/>
<text text-anchor="middle" x="540.5" y="-159.5" font-family="mono" font-size="10.00">cache/m2.RDS</text>
</a>
</g>
</g>
<!-- cache/sim.RDS -->
<g id="node3" class="node cache-sim-RDS -->
">
<title>cache/sim.RDS</title>
<g id="a_node3"><a xlink:title="DATE &#160;&#160;&#160;: Wed Jan 10 15:23:11 2024&#10;RULE &#160;&#160;&#160;: simulation&#10;STATUS &#160;: ok&#10;PLAN &#160;&#160;&#160;: no update&#10;">
<polygon fill="none" stroke="#e500ac" stroke-width="1.5" stroke-dasharray="5,2" points="352,-252 257,-252 257,-216 352,-216 352,-252"/>
<polyline fill="none" stroke="#e500ac" stroke-width="1.5" stroke-dasharray="5,2" points="269,-252 257,-240"/>
<polyline fill="none" stroke="#e500ac" stroke-width="1.5" stroke-dasharray="5,2" points="257,-228 269,-216"/>
<polyline fill="none" stroke="#e500ac" stroke-width="1.5" stroke-dasharray="5,2" points="340,-216 352,-228"/>
<polyline fill="none" stroke="#e500ac" stroke-width="1.5" stroke-dasharray="5,2" points="352,-240 340,-252"/>
<text text-anchor="middle" x="304.5" y="-231.5" font-family="mono" font-size="10.00">cache/sim.RDS</text>
</a>
</g>
</g>
<!-- cache/sim.RDS&#45;&gt;cache/m1.RDS -->
<g id="edge7" class="edge cache-sim-RDS">
<title>cache/sim.RDS&#45;&gt;cache/m1.RDS</title>
<path fill="none" stroke="#e500ac" d="M352.29,-234C390.29,-234 443.96,-234 484.1,-234"/>
<polygon fill="#e500ac" stroke="#e500ac" points="484.05,-237.5 494.05,-234 484.05,-230.5 484.05,-237.5"/>
</g>
<!-- cache/sim.RDS&#45;&gt;cache/m2.RDS -->
<g id="edge1" class="edge cache-sim-RDS">
<title>cache/sim.RDS&#45;&gt;cache/m2.RDS</title>
<path fill="none" stroke="#e500ac" d="M352.29,-219.6C390.45,-207.86 444.42,-191.26 484.61,-178.89"/>
<polygon fill="#e500ac" stroke="#e500ac" points="485.59,-182.25 494.11,-175.96 483.53,-175.56 485.59,-182.25"/>
</g>
<!-- src/fit_m1.R -->
<g id="node4" class="node src-fit_m1-R -->
">
<title>src/fit_m1.R</title>
<path fill="none" stroke="#7200e5" stroke-width="1.5" stroke-dasharray="5,2" d="M337,-396C337,-396 272,-396 272,-396 266,-396 260,-390 260,-384 260,-384 260,-372 260,-372 260,-366 266,-360 272,-360 272,-360 337,-360 337,-360 343,-360 349,-366 349,-372 349,-372 349,-384 349,-384 349,-390 343,-396 337,-396"/>
<text text-anchor="middle" x="304.5" y="-375.5" font-family="mono" font-size="10.00">src/fit_m1.R</text>
</g>
<!-- src/fit_m1.R&#45;&gt;cache/m1.RDS -->
<g id="edge8" class="edge src-fit_m1-R">
<title>src/fit_m1.R&#45;&gt;cache/m1.RDS</title>
<path fill="none" stroke="#7200e5" d="M335.14,-359.76C376.96,-334.03 453.37,-287 499.98,-258.32"/>
<polygon fill="#7200e5" stroke="#7200e5" points="501.76,-261.33 508.45,-253.11 498.1,-255.37 501.76,-261.33"/>
</g>
<!-- src/fit_m2.R -->
<g id="node5" class="node src-fit_m2-R -->
">
<title>src/fit_m2.R</title>
<path fill="none" stroke="#0039e5" stroke-width="1.5" stroke-dasharray="5,2" d="M337,-108C337,-108 272,-108 272,-108 266,-108 260,-102 260,-96 260,-96 260,-84 260,-84 260,-78 266,-72 272,-72 272,-72 337,-72 337,-72 343,-72 349,-78 349,-84 349,-84 349,-96 349,-96 349,-102 343,-108 337,-108"/>
<text text-anchor="middle" x="304.5" y="-87.5" font-family="mono" font-size="10.00">src/fit_m2.R</text>
</g>
<!-- src/fit_m2.R&#45;&gt;cache/m2.RDS -->
<g id="edge2" class="edge src-fit_m2-R">
<title>src/fit_m2.R&#45;&gt;cache/m2.RDS</title>
<path fill="none" stroke="#0039e5" d="M349.24,-103.46C387.53,-115.24 443.34,-132.41 484.62,-145.11"/>
<polygon fill="#0039e5" stroke="#0039e5" points="483.54,-148.44 494.13,-148.04 485.6,-141.75 483.54,-148.44"/>
</g>
<!-- src/m1.stan -->
<g id="node6" class="node src-m1-stan -->
">
<title>src/m1.stan</title>
<path fill="none" stroke="#00e5e5" stroke-width="1.5" stroke-dasharray="5,2" d="M334,-324C334,-324 275,-324 275,-324 269,-324 263,-318 263,-312 263,-312 263,-300 263,-300 263,-294 269,-288 275,-288 275,-288 334,-288 334,-288 340,-288 346,-294 346,-300 346,-300 346,-312 346,-312 346,-318 340,-324 334,-324"/>
<text text-anchor="middle" x="304.5" y="-303.5" font-family="mono" font-size="10.00">src/m1.stan</text>
</g>
<!-- src/m1.stan&#45;&gt;cache/m1.RDS -->
<g id="edge9" class="edge src-m1-stan">
<title>src/m1.stan&#45;&gt;cache/m1.RDS</title>
<path fill="none" stroke="#00e5e5" d="M346.26,-293.46C384.6,-281.66 442.3,-263.91 484.67,-250.87"/>
<polygon fill="#00e5e5" stroke="#00e5e5" points="485.66,-254.23 494.19,-247.94 483.6,-247.54 485.66,-254.23"/>
</g>
<!-- src/m2.stan -->
<g id="node7" class="node src-m2-stan -->
">
<title>src/m2.stan</title>
<path fill="none" stroke="#00e539" stroke-width="1.5" stroke-dasharray="5,2" d="M334,-36C334,-36 275,-36 275,-36 269,-36 263,-30 263,-24 263,-24 263,-12 263,-12 263,-6 269,0 275,0 275,0 334,0 334,0 340,0 346,-6 346,-12 346,-12 346,-24 346,-24 346,-30 340,-36 334,-36"/>
<text text-anchor="middle" x="304.5" y="-15.5" font-family="mono" font-size="10.00">src/m2.stan</text>
</g>
<!-- src/m2.stan&#45;&gt;cache/m2.RDS -->
<g id="edge3" class="edge src-m2-stan">
<title>src/m2.stan&#45;&gt;cache/m2.RDS</title>
<path fill="none" stroke="#00e539" d="M335.14,-36.24C376.96,-61.97 453.37,-109 499.98,-137.68"/>
<polygon fill="#00e539" stroke="#00e539" points="498.1,-140.63 508.45,-142.89 501.76,-134.67 498.1,-140.63"/>
</g>
<!-- src/sim.stan -->
<g id="node8" class="node src-sim-stan -->
">
<title>src/sim.stan</title>
<path fill="none" stroke="#72e500" stroke-width="1.5" stroke-dasharray="5,2" d="M89,-288C89,-288 24,-288 24,-288 18,-288 12,-282 12,-276 12,-276 12,-264 12,-264 12,-258 18,-252 24,-252 24,-252 89,-252 89,-252 95,-252 101,-258 101,-264 101,-264 101,-276 101,-276 101,-282 95,-288 89,-288"/>
<text text-anchor="middle" x="56.5" y="-267.5" font-family="mono" font-size="10.00">src/sim.stan</text>
</g>
<!-- src/sim.stan&#45;&gt;cache/sim.RDS -->
<g id="edge5" class="edge src-sim-stan">
<title>src/sim.stan&#45;&gt;cache/sim.RDS</title>
<path fill="none" stroke="#72e500" d="M101.48,-263.56C141.65,-257.68 201.33,-248.95 245.42,-242.5"/>
<polygon fill="#72e500" stroke="#72e500" points="245.67,-246 255.05,-241.09 244.65,-239.07 245.67,-246"/>
</g>
<!-- src/simulation.R -->
<g id="node9" class="node src-simulation-R -->
">
<title>src/simulation.R</title>
<path fill="none" stroke="#e5ac00" stroke-width="1.5" stroke-dasharray="5,2" d="M101,-216C101,-216 12,-216 12,-216 6,-216 0,-210 0,-204 0,-204 0,-192 0,-192 0,-186 6,-180 12,-180 12,-180 101,-180 101,-180 107,-180 113,-186 113,-192 113,-192 113,-204 113,-204 113,-210 107,-216 101,-216"/>
<text text-anchor="middle" x="56.5" y="-195.5" font-family="mono" font-size="10.00">src/simulation.R</text>
</g>
<!-- src/simulation.R&#45;&gt;cache/sim.RDS -->
<g id="edge6" class="edge src-simulation-R">
<title>src/simulation.R&#45;&gt;cache/sim.RDS</title>
<path fill="none" stroke="#e5ac00" d="M113.32,-206.17C152.76,-211.94 205.48,-219.66 245.42,-225.5"/>
<polygon fill="#e5ac00" stroke="#e5ac00" points="244.68,-228.93 255.08,-226.91 245.69,-222 244.68,-228.93"/>
</g>
<!-- src/utils.R -->
<g id="node10" class="node src-utils-R -->
">
<title>src/utils.R</title>
<path fill="none" stroke="#e50000" stroke-width="1.5" stroke-dasharray="5,2" d="M334,-180C334,-180 275,-180 275,-180 269,-180 263,-174 263,-168 263,-168 263,-156 263,-156 263,-150 269,-144 275,-144 275,-144 334,-144 334,-144 340,-144 346,-150 346,-156 346,-156 346,-168 346,-168 346,-174 340,-180 334,-180"/>
<text text-anchor="middle" x="304.5" y="-159.5" font-family="mono" font-size="10.00">src/utils.R</text>
</g>
<!-- src/utils.R&#45;&gt;cache/m1.RDS -->
<g id="edge10" class="edge src-utils-R">
<title>src/utils.R&#45;&gt;cache/m1.RDS</title>
<path fill="none" stroke="#e50000" d="M346.26,-174.54C384.6,-186.34 442.3,-204.09 484.67,-217.13"/>
<polygon fill="#e50000" stroke="#e50000" points="483.6,-220.46 494.19,-220.06 485.66,-213.77 483.6,-220.46"/>
</g>
<!-- src/utils.R&#45;&gt;cache/m2.RDS -->
<g id="edge4" class="edge src-utils-R">
<title>src/utils.R&#45;&gt;cache/m2.RDS</title>
<path fill="none" stroke="#e50000" d="M346.26,-162C384.44,-162 441.81,-162 484.12,-162"/>
<polygon fill="#e50000" stroke="#e50000" points="484.12,-165.5 494.12,-162 484.12,-158.5 484.12,-165.5"/>
</g>
</g>
<style>g.edge:hover * {stroke-width: 5;}
.node.src-sim-stan:hover ~ .src-sim-stan{stroke-width: 5;}
.node.src-m2-stan:hover ~ .src-m2-stan{stroke-width: 5;}
.node.cache-m1-RDS -->
:hover ~ .cache-m1-RDS -->
{stroke-width: 5;}
.node.src-utils-R:hover ~ .src-utils-R{stroke-width: 5;}
.node.src-fit_m2-R:hover ~ .src-fit_m2-R{stroke-width: 5;}
.node.src-m1-stan -->
:hover ~ .src-m1-stan -->
{stroke-width: 5;}
.node.Title: fileDAG Pages: 1 -->
:hover ~ .Title: fileDAG Pages: 1 -->
{stroke-width: 5;}
.node.src-m1-stan:hover ~ .src-m1-stan{stroke-width: 5;}
.node.src-fit_m1-R:hover ~ .src-fit_m1-R{stroke-width: 5;}
.node.cache-m2-RDS -->
:hover ~ .cache-m2-RDS -->
{stroke-width: 5;}
.node.src-sim-stan -->
:hover ~ .src-sim-stan -->
{stroke-width: 5;}
.node.src-fit_m2-R -->
:hover ~ .src-fit_m2-R -->
{stroke-width: 5;}
.node.src-utils-R -->
:hover ~ .src-utils-R -->
{stroke-width: 5;}
.node.src-simulation-R -->
:hover ~ .src-simulation-R -->
{stroke-width: 5;}
.node.src-m2-stan -->
:hover ~ .src-m2-stan -->
{stroke-width: 5;}
.node.cache-sim-RDS:hover ~ .cache-sim-RDS{stroke-width: 5;}
.node.Generated by graphviz version 7-0-6 (20230106-0513)
:hover ~ .Generated by graphviz version 7-0-6 (20230106-0513)
{stroke-width: 5;}
.node.cache-sim-RDS -->
:hover ~ .cache-sim-RDS -->
{stroke-width: 5;}
.node.src-fit_m1-R -->
:hover ~ .src-fit_m1-R -->
{stroke-width: 5;}
.node.src-simulation-R:hover ~ .src-simulation-R{stroke-width: 5;}
</style></svg>
